<svg width="1707" height="1708" viewBox="0 0 1707 1708" fill="none" xmlns="http://www.w3.org/2000/svg">
<path d="M1707 1000L1687 988.453V1011.55L1707 1000ZM707 1002H1689V998H707V1002Z" fill="black"/>
<path d="M-7.28883e-05 1707.11L22.307 1701.13L5.9771 1684.8L-7.28883e-05 1707.11ZM705.692 998.586L11.3136 1692.96L14.1421 1695.79L708.521 1001.41L705.692 998.586Z" fill="black"/>
<path d="M707 1.1921e-06L695.453 20H718.547L707 1.1921e-06ZM709 1000L709 18H705L705 1000H709Z" fill="black"/>
<path d="M707 1000H1143.5L971.5 1212H496.5L707 1000Z" fill="#D9D9D9"/>
<path d="M916 413L723.5 622L496 857L707 644L916 413Z" fill="#229318"/>
<path d="M707 644L1143.5 644V1000H707L707 644Z" fill="#C0C0C0"/>
<path d="M971.5 856L1143.5 644V1000L971.5 1212V856Z" fill="#898989"/>
<path d="M496.5 856H971.5V1212H496.5V856Z" fill="#784242"/>
<path d="M707 644H1143.5L971.5 856H496.5L707 644Z" fill="#D9D9D9"/>
<path d="M723.5 622L971.5 856H496.5L723.5 622Z" fill="#7B2222"/>
<path d="M916.5 412L1143.5 644H707L916.5 412Z" fill="#7B2222"/>
<path d="M916.5 412L1143.5 644L971.5 856L723.5 622L916.5 412Z" fill="#931818"/>
</svg>
