<svg width="675" height="676" viewBox="0 0 675 676" fill="none" xmlns="http://www.w3.org/2000/svg">
<path d="M49.4543 424H101.954L267.954 257H216.454L49.4543 424Z" fill="#87FFDB" stroke="black"/>
<path d="M256.305 269.235V268.735H255.805H184.135L427.977 2.03125L671.865 268.735H600.164H599.664V269.235V490.79H256.305V269.235ZM252.416 239.111H285.822V460.666V461.166H286.322H569.617H570.117V460.666V239.111H603.538H604.673L603.907 238.274L428.346 46.2609L427.977 45.8573L427.608 46.2609L252.047 238.274L251.281 239.111H252.416Z" fill="#87FFDB" stroke="black"/>
<path d="M74.9543 452.5V672.5L256.454 490.5V269L74.9543 452.5Z" fill="#87FFDB" stroke="black"/>
<path d="M417.454 452L600.454 269V491L417.454 674V452Z" fill="#87FFDB" stroke="black"/>
<path d="M244.954 184.5L427.954 1.5L183.454 269L0.454346 452L244.954 184.5Z" fill="#87FFDB" stroke="black"/>
<path d="M428.454 1L245.454 184L490.454 452L673.454 269L428.454 1Z" fill="#87FFDB" stroke="black"/>
<path d="M73.3046 452.235V451.735H72.8046H1.13461L244.977 185.031L488.865 451.735H417.164H416.664V452.235V673.79H73.3046V452.235ZM69.4158 422.111H102.822V643.666V644.166H103.322H386.617H387.117V643.666V422.111H420.538H421.673L420.907 421.274L245.346 229.261L244.977 228.857L244.608 229.261L69.0467 421.274L68.2811 422.111H69.4158Z" fill="#87FFDB" stroke="black"/>
<path d="M245.5 215.5L45 436H85L93.5 658.5L402.5 654.5V450.5L437 426L245.5 215.5Z" fill="#87FFDB"/>
</svg>
