<svg width="212" height="290" viewBox="0 0 212 290" fill="none" xmlns="http://www.w3.org/2000/svg">
<path d="M126.501 41.5007C167.701 42.3007 168.501 84.0007 168.501 84.0007H211.001C211.001 42.4008 168.501 1 126.501 1H84.0007C42.8012 1 1 41.5007 1 84.0007V205.001C1 246.601 42.5007 289.001 85.0007 289.001H127C168.2 289.001 211.001 247.001 211.001 205.001H168.501C168.501 246.201 127 247.001 127 247.001H85.0007C41.8007 247.001 42.5007 205.001 42.5007 205.001V84.0007C42.5007 42.0007 84.0007 41.5007 84.0007 41.5007H126.501Z" stroke="black"/>
</svg>
